<?xml version="1.0" encoding="utf-8"?>
<!-- Generator: Adobe Illustrator 22.0.1, SVG Export Plug-In . SVG Version: 6.00 Build 0)  -->
<svg version="1.1" id="Livello_1" xmlns="http://www.w3.org/2000/svg" xmlns:xlink="http://www.w3.org/1999/xlink" x="0px" y="0px"
	 viewBox="0 0 1080 1920" style="enable-background:new 0 0 1080 1920;" xml:space="preserve">
<style type="text/css">
	.st0{fill:#FFFFFF;}
</style>
<path d="M980,0H100C45,0,0,45,0,100v1720c0,55,45,100,100,100h880c55,0,100-45,100-100V100C1080,45,1035,0,980,0z"/>
<path class="st0" d="M947.4,33.4H132.6c-55,0-100,45-100,100v1653.3c0,55,45,100,100,100h814.7c55,0,100-45,100-100V133.4
	C1047.4,78.4,1002.4,33.4,947.4,33.4z"/>
</svg>
