<?xml version="1.0" encoding="utf-8"?>
<!-- Generator: Adobe Illustrator 22.0.1, SVG Export Plug-In . SVG Version: 6.00 Build 0)  -->
<svg version="1.1" id="Livello_1" xmlns="http://www.w3.org/2000/svg" xmlns:xlink="http://www.w3.org/1999/xlink" x="0px" y="0px"
	 viewBox="0 0 1920 1080" style="enable-background:new 0 0 1920 1080;" xml:space="preserve">
<style type="text/css">
	.st0{display:none;}
	.st1{fill:#F8F6F8;}
</style>
<path class="st0" d="M1770.4,0H149.6C67,0,0,59.2,0,132.2v815.5c0,73,67,132.2,149.6,132.2h1620.8c82.6,0,149.6-59.2,149.6-132.2
	V132.2C1920,59.2,1853,0,1770.4,0z"/>
<path d="M1860,0H60C27,0,0,27,0,60v960c0,33,27,60,60,60h1800c33,0,60-27,60-60V60C1920,27,1893,0,1860,0z"/>
<path class="st1" d="M1837,34.4H83c-22,0-40,18-40,40v931.2c0,22,18,40,40,40h1754c22,0,40-18,40-40V74.4
	C1877,52.4,1859,34.4,1837,34.4z"/>
</svg>
